<?xml version="1.0" encoding="UTF-8" standalone="no"?>
<!DOCTYPE svg PUBLIC "-//W3C//DTD SVG 1.1//EN" "http://www.w3.org/Graphics/SVG/1.1/DTD/svg11.dtd">
<svg version="1.1" xmlns="http://www.w3.org/2000/svg" xmlns:xlink="http://www.w3.org/1999/xlink" preserveAspectRatio="xMidYMid meet" viewBox="0 0 1200 800" width="1200" height="800"><defs><path d="M1208.08 537.28C1203.67 552.83 1197.2 567.72 1188.82 581.54C1188.82 631.61 1155.02 674.89 1105.95 695.48C1085.45 704 1063.46 708.35 1041.25 708.27C965.99 708.27 363.84 708.27 288.58 708.27C248.35 708.27 211.07 697.42 180.49 678.93C171.74 673.66 163.44 667.68 155.67 661.05C121.69 631.84 100.62 591.49 100.62 546.91C81.55 517.54 71.44 483.26 71.52 448.24C71.52 374.92 114.89 311.87 177.01 284.03C185.26 280.34 193.79 277.29 202.51 274.92C207.14 273.66 210.93 272.89 211.86 272.66C220.27 270.87 228.79 269.7 237.36 269.16C240.46 268.97 243.58 268.86 246.71 268.83C247.74 268.83 248.31 268.83 248.43 268.83C251.88 268.83 255.31 268.95 258.72 269.15C258.83 268.96 259.73 267.44 259.84 267.25C261.9 263.82 263.64 261.13 264.06 260.45C267.96 254.31 271.42 249.56 272.23 248.35C275.22 244.16 278.33 240.04 281.58 235.98C282.08 235.38 282.35 235.05 282.41 234.98C285.17 231.54 287.48 228.86 288.05 228.18C297.04 217.7 305.14 209.88 307.04 207.84C379.11 137.2 492.02 91.72 618.95 91.72C717.72 91.72 808.01 119.26 877.16 164.76C903.36 149.93 932.95 142.15 963.06 142.18C1060.74 142.18 1139.96 222.51 1139.96 321.6C1139.95 327.86 1139.62 334.13 1138.96 340.37C1186.75 374.19 1215.09 429.16 1214.92 487.71C1214.94 504.47 1212.63 521.15 1208.08 537.28Z" id="f1ssOhuaqE"></path><path d="M759.55 644.44L790.46 694.82L792.81 698.65L914.79 698.65L917.25 459.63L759.55 459.63L759.55 459.63L759.55 644.44Z" id="a4eqDdZgDA"></path><path d="M759.55 644.44L790.46 694.82L792.36 459.63L759.55 459.63L759.55 459.63L759.55 644.44Z" id="bxrgVyKvb"></path><path d="M465.09 639.51L434.18 689.89L431.82 693.72L309.85 693.72L307.39 454.7L465.09 454.7L465.09 454.7L465.09 639.51Z" id="a1rsdXtufF"></path><path d="M465.09 639.51L434.18 689.89L432.28 454.7L465.09 454.7L465.09 454.7L465.09 639.51Z" id="b6dWiT87LL"></path><path d="M954.21 462.09L291.37 462.09L291.37 446.08L352.97 414.04L900 414.04L954.21 451.01L954.21 451.01L954.21 462.09Z" id="bsfy5bo8Y"></path><path d="M954.21 462.09L291.37 462.09L291.37 446.08L954.21 451.01L954.21 451.01L954.21 462.09Z" id="c2ohehSsQb"></path><path d="M356.67 506.45L344.35 497.82L399.79 497.82L386.24 506.45L386.24 506.45L356.67 506.45Z" id="cQzU010tS"></path><path d="M356.67 542.18L344.35 533.55L399.79 533.55L386.24 542.18L386.24 542.18L356.67 542.18Z" id="b1P1zqeczO"></path><path d="M356.67 592.69L344.35 584.07L399.79 584.07L386.24 592.69L386.24 592.69L356.67 592.69Z" id="ay0HYtvjm"></path><path d="M356.67 643.21L344.35 634.58L399.79 634.58L386.24 643.21L386.24 643.21L356.67 643.21Z" id="idzjsrmlT"></path><path d="M867.97 511.38L880.29 502.75L824.85 502.75L838.4 511.38L838.4 511.38L867.97 511.38Z" id="b9uFoDjm9"></path><path d="M867.97 547.11L880.29 538.48L824.85 538.48L838.4 547.11L838.4 547.11L867.97 547.11Z" id="aXvMY9vx"></path><path d="M867.97 597.62L880.29 589L824.85 589L838.4 597.62L838.4 597.62L867.97 597.62Z" id="alK7yT33V"></path><path d="M867.97 648.13L880.29 639.51L824.85 639.51L838.4 648.13L838.4 648.13L867.97 648.13Z" id="a4aSdcybSh"></path><path d="M609.6 200.33C604.41 200.33 600.19 204.55 600.19 209.75C600.19 209.75 600.19 209.75 600.19 209.75C600.19 226.52 600.19 360.67 600.19 377.43C600.19 382.63 604.4 386.85 609.6 386.85C609.6 386.85 609.6 386.85 609.6 386.85C615.9 386.85 647.4 386.85 704.1 386.85C701.98 400.41 700.8 407.94 700.56 409.45C700.56 409.45 680.33 420.2 694.55 420.52C694.55 420.52 775.8 420.52 775.8 420.52C775.8 420.52 788.76 420.52 768.21 409.14C767.99 407.65 766.88 400.22 764.88 386.85C821.07 386.85 852.29 386.85 858.54 386.85C863.73 386.85 867.95 382.64 867.95 377.44C867.95 377.44 867.95 377.44 867.95 377.43C867.95 360.67 867.95 226.52 867.95 209.75C867.95 204.55 863.74 200.33 858.54 200.33C858.54 200.33 858.54 200.33 858.54 200.33C858.54 200.33 634.5 200.33 609.6 200.33Z" id="a1AMPfjWgw"></path><path d="M858.94 210.29C858.94 210.29 858.94 210.29 858.94 210.29C858.94 294.13 858.94 340.7 858.94 350.02C858.94 350.02 858.94 350.02 858.94 350.02C709.1 350.02 625.85 350.02 609.2 350.02C609.2 350.02 609.2 350.02 609.2 350.02C609.2 266.18 609.2 219.61 609.2 210.29C609.2 210.29 609.2 210.29 609.2 210.29C759.04 210.29 842.29 210.29 858.94 210.29Z" id="c83JKH1bi"></path><path d="M734.07 204.29C733.2 204.29 732.49 204.99 732.49 205.87C732.49 206.74 733.2 207.45 734.07 207.45C734.94 207.45 735.65 206.74 735.65 205.87C735.65 204.99 734.94 204.29 734.07 204.29Z" id="g380ExMGOR"></path><path d="M734.07 368.04C730.75 368.04 728.06 370.73 728.06 374.05C728.06 377.36 730.75 380.05 734.07 380.05C737.39 380.05 740.08 377.36 740.08 374.05C740.08 370.73 737.39 368.04 734.07 368.04Z" id="j3s2AvGfnU"></path><path d="M724.71 440.75L554.63 440.75L554.63 438.22L554.87 437.59L559.06 426.21L721.23 426.21L724.71 437.59L724.71 437.59L724.71 440.75Z" id="a2Nc8vEQcp"></path><path d="M786.04 438.54C776.56 443.28 757.27 437.27 757.27 437.27C757.27 437.27 742.41 434.74 742.41 428.1C742.83 427.82 743.27 427.56 743.72 427.33C747.7 425.22 760.92 420.01 784.37 427.55C786.09 428.09 787.63 429.1 788.82 430.47C789.89 431.52 790.39 433.01 790.16 434.49C789.85 435.82 788.68 437.21 786.04 438.54Z" id="c1hvqUsRp"></path><path d="M757.59 431.9C753.57 428.93 748.71 427.33 743.72 427.33C747.7 425.22 760.92 420.01 784.37 427.55C786.09 428.09 787.63 429.1 788.82 430.47C789.89 431.52 790.39 433.01 790.16 434.49C778.55 438.94 768.21 439.27 757.59 431.9Z" id="aazJefpRl"></path><path d="M779.72 430.63C779.72 431.33 777.88 431.9 775.61 431.9C773.34 431.9 771.5 431.33 771.5 430.63C771.5 429.93 773.34 429.37 775.61 429.37C777.88 429.37 779.72 429.93 779.72 430.63Z" id="b24rSjjVmR"></path><path d="M724.71 440.75L554.63 440.75L554.63 438.22L554.87 437.59L724.71 437.59L724.71 437.59L724.71 440.75Z" id="aoCM8UuSo"></path><path d="M333.36 81.11C331.88 82.12 330.95 83.89 330.01 85.53C326.38 91.9 321.47 97.45 315.59 101.82C311.3 104.96 305.85 108.87 306.59 114.66C306.97 116.57 307.68 118.4 308.68 120.08C312.63 128.06 323.41 134.22 322.35 143.33C326.28 136.76 321.03 133.5 324.96 126.93C326.83 123.8 330.07 120.27 332.9 122.23C333.84 122.89 334.46 124.07 335.45 124.65C337.8 126.03 340.3 123.39 342.37 121.52C349.54 115.09 359.74 116.77 368.66 118.78C372.87 119.73 377.5 120.97 379.99 124.99C383.26 130.29 376.88 136 375.27 141.99C374.82 143.73 375.86 145.51 377.61 145.96C377.99 146.06 378.38 146.09 378.77 146.05C381.44 145.78 384.61 145.57 384.77 144.39C388.14 144.51 392.27 144.13 393.71 140.62C394.15 139.23 394.39 137.79 394.4 136.33C394.93 130.44 397.43 125.07 399.09 119.46C400.75 113.85 401.47 107.28 398.67 102.31C397.67 100.66 396.44 99.16 395.01 97.86C379.15 82.51 358.29 79.98 338.31 80C336.59 79.86 334.86 80.24 333.36 81.11Z" id="c2l0sKgEY9"></path><path d="M316.6 185.88C316.6 185.88 328.1 227.28 328.1 227.28C331.94 227.74 351.1 230.04 385.6 234.18C377.32 206.58 372.72 191.24 371.8 188.18C371.8 188.18 362.6 184.73 368.35 161.73C374.1 138.73 325.8 154.83 325.8 154.83C323.96 161.04 329.25 183.58 316.6 185.88Z" id="cb8CaYmA"></path><path d="M295.33 711.99L319.48 711.99L312.58 648.74L290.73 648.74L290.73 648.74L295.33 711.99Z" id="eg998Uc5L"></path><path d="M471.27 582.04L497.72 570.54L487.37 526.84L467.82 529.14L467.82 529.14L471.27 582.04Z" id="c1W0MpCCf"></path><path d="M271.07 417.21C271.07 417.21 272.22 483.91 279.12 505.76C279.12 505.76 284.87 528.76 283.72 532.21C283.72 532.21 281.42 533.36 281.42 539.11C281.42 539.11 279.12 635.71 281.42 643.76C281.42 643.76 274.52 665.6 281.42 666.75C281.42 666.75 320.52 666.75 321.67 659.85C321.67 659.85 312.47 650.65 317.07 646.06C317.07 646.06 328.57 547.16 328.57 547.16C329.64 542.79 335.01 520.94 344.67 481.61L374.57 447.11L437.81 447.11C449.54 492.65 456.06 517.95 457.36 523.01C457.36 523.01 449.31 544.86 455.06 544.86C455.06 544.86 495.31 551.76 495.31 526.46C495.31 501.16 483.81 426.41 481.51 424.11C479.21 421.81 482.66 413.76 479.21 410.31C475.76 406.86 435.51 382.71 420.56 378.11C405.62 373.51 384.64 368.04 384.64 368.04C361.93 377.87 293.78 407.38 271.07 417.21Z" id="a3zm6Bpc7"></path><path d="M472.42 572.84C472.42 572.84 467.82 594.69 467.82 594.69C467.82 594.69 494.27 603.89 498.87 599.29C500.87 597.29 507.23 596.59 513.77 596.45C523.73 596.22 526.38 582.13 516.97 578.85C516.55 578.7 516.21 578.62 516.12 578.59C506.92 576.29 497.72 561.34 497.72 561.34C492.66 563.64 480.47 555.59 472.42 572.84Z" id="b5eqQJZcT"></path><path d="M351.68 104.81C332.62 104.81 317.18 120.25 317.18 139.3C317.18 158.36 332.62 173.8 351.68 173.8C370.73 173.8 386.18 158.36 386.18 139.3C386.18 120.25 370.73 104.81 351.68 104.81Z" id="b28MbFJWhu"></path><path d="M376.98 193.35C376.98 193.35 396.53 245.1 396.53 245.1C396.99 250.01 399.29 274.54 403.43 318.7C397.22 342.85 393.77 356.26 393.08 358.95C393.08 358.95 339.03 402.65 321.78 406.1C321.78 406.1 278.08 411.85 278.08 411.85C278.08 411.85 286.13 284.2 286.13 281.9C286.13 279.6 306.83 200.25 306.83 200.25C320.86 198.87 363.18 211.75 376.98 193.35Z" id="a103MRhRXr"></path><path d="M307.98 178.4C304.53 185.3 272.33 202.55 268.88 202.55C265.43 202.55 275.78 298 271.18 309.5C266.58 321 244.73 404.95 257.38 411.85C270.03 418.75 260.83 404.95 273.48 422.2C286.13 439.44 348.23 439.44 351.68 432.54C355.13 425.65 324.08 373.9 329.83 325.6C335.58 277.3 344.78 210.6 336.73 201.4C328.68 192.2 323.97 178.69 323.97 178.69C320.77 178.63 311.43 171.5 307.98 178.4Z" id="aQghPzNB6"></path><path d="M367.08 180.94C367.08 180.94 414.93 196.8 417.23 207.15C417.23 207.15 418.38 289.95 410.33 295.7C410.33 295.7 390.78 310.65 398.83 324.45C398.83 324.45 416.08 353.2 422.98 354.35C422.98 354.35 442.52 363.55 439.07 371.6C439.07 371.6 394.23 364.7 394.23 364.7C394.23 364.7 366.63 344 367.78 311.8C368.93 279.6 365.48 186.45 365.48 186.45C365.8 185.35 366.92 181.49 367.08 180.94Z" id="a2qu24RuL"></path><path d="M405.73 322.15C389.17 353.2 379.97 370.45 378.13 373.9C378.13 373.9 337.88 415.3 360.88 419.9C360.88 419.9 396.53 381.95 396.53 381.95C398.52 379.11 408.49 364.93 426.43 339.4L405.73 322.15Z" id="dH7bRb3SW"></path><path d="M335.96 89.81C334.83 90.64 333.9 91.7 333.23 92.94C330.16 97.55 326.17 101.47 321.49 104.45C318.01 106.67 313.57 109.43 314.17 113.52C314.49 114.9 315.07 116.19 315.87 117.35C319.1 123.05 320.38 129.64 319.53 136.14C320.49 134.74 328.16 123.59 329.12 122.2C330.64 119.98 333.29 117.49 335.59 118.88C336.36 119.34 336.86 120.18 337.66 120.58C339.57 121.56 341.61 119.7 343.3 118.38C349.14 113.83 357.44 115.02 364.7 116.44C368.13 117.11 371.89 117.98 373.92 120.83C377.29 125.56 373.77 132.39 375.74 137.85C376.85 137.07 377.6 135.88 377.81 134.54C380.56 134.62 383.92 134.35 385.09 131.87C385.45 130.9 385.64 129.88 385.65 128.84C386.08 124.68 388.12 120.88 389.47 116.92C390.82 112.95 391.4 108.31 389.13 104.8C388.3 103.61 387.29 102.55 386.15 101.65C373.23 90.8 356.26 89.01 340 89.03C338.6 88.92 337.21 89.19 335.96 89.81Z" id="aa0mdIj6f"></path><path d="M405.73 202.55C412.15 204.26 415.73 205.21 416.44 205.4C416.44 205.4 441.37 269.25 435.63 312.95C435.63 312.95 426.43 347.45 426.43 347.45C426.43 347.45 417.23 326.75 396.53 331.35C397.75 314.18 400.82 271.24 405.73 202.55Z" id="e1TVwnPdg"></path><path d="M287.65 716.76C285.52 720.22 281.51 722.03 278.84 725.08C277.99 726.1 277.24 727.19 276.58 728.34C274.11 732.48 272.1 737.78 274.53 741.94C276.49 745.29 280.61 746.6 284.38 747.49C289.15 748.62 294.1 749.52 298.93 748.66C303.75 747.8 308.47 744.84 310.19 740.25C310.53 739.1 310.93 737.97 311.39 736.86C314.01 731.71 322.21 731.65 324.88 726.54C326.76 722.96 325.04 718.63 323.31 714.97C322.79 713.86 318.58 704.92 318.06 703.81C316.31 700.1 309.24 702.23 305.56 701.34C300.75 700.19 295.78 698.91 292.32 703.63C289.55 707.4 290.11 712.78 287.65 716.76Z" id="a1rliR2SBZ"></path><path d="M253.93 345.15C282.91 390 299.01 414.91 302.23 419.9C302.23 419.9 332.13 457.84 341.33 440.59C341.33 440.59 309.13 394.6 309.13 394.6C307.06 390.76 296.71 371.6 278.08 337.1L253.93 345.15Z" id="a28qtaPTeb"></path><path d="M268.88 202.55C268.88 202.55 250.48 208.3 245.88 232.45C245.88 232.45 244.73 353.2 250.48 354.35C250.48 354.35 278.88 337.53 282.5 341.34C282.5 341.34 274.63 325.6 278.08 315.25C281.53 304.9 278.08 204.85 278.08 204.85C276.24 204.39 269.8 202.78 268.88 202.55Z" id="d1nhEA5cds"></path><path d="M710.43 256.18C710.43 256.18 710.43 256.18 710.43 256.18C710.43 260.48 710.43 262.86 710.43 263.34C710.43 263.34 710.43 263.34 710.43 263.34C692.6 263.34 682.69 263.34 680.71 263.34C680.71 263.34 680.71 263.34 680.71 263.34C680.71 259.05 680.71 256.66 680.71 256.18C680.71 256.18 680.71 256.18 680.71 256.18C698.54 256.18 708.45 256.18 710.43 256.18Z" id="a3taLhgz5w"></path><path d="M813.36 256.18C813.36 256.18 813.36 256.18 813.36 256.18C813.36 260.48 813.36 262.86 813.36 263.34C813.36 263.34 813.36 263.34 813.36 263.34C807.08 263.34 803.6 263.34 802.9 263.34C802.9 263.34 802.9 263.34 802.9 263.34C802.9 259.05 802.9 256.66 802.9 256.18C802.9 256.18 802.9 256.18 802.9 256.18C809.18 256.18 812.66 256.18 813.36 256.18Z" id="a1kaSCOknU"></path><path d="M834.27 256.18C834.27 256.18 834.27 256.18 834.27 256.18C834.27 260.48 834.27 262.86 834.27 263.34C834.27 263.34 834.27 263.34 834.27 263.34C828 263.34 824.51 263.34 823.82 263.34C823.82 263.34 823.82 263.34 823.82 263.34C823.82 259.05 823.82 256.66 823.82 256.18C823.82 256.18 823.82 256.18 823.82 256.18C830.09 256.18 833.58 256.18 834.27 256.18Z" id="atra3cmU2"></path><path d="M791.89 256.18C791.89 256.18 791.89 256.18 791.89 256.18C791.89 260.48 791.89 262.86 791.89 263.34C791.89 263.34 791.89 263.34 791.89 263.34C749.29 263.34 725.62 263.34 720.89 263.34C720.89 263.34 720.89 263.34 720.89 263.34C720.89 259.05 720.89 256.66 720.89 256.18C720.89 256.18 720.89 256.18 720.89 256.18C763.49 256.18 787.16 256.18 791.89 256.18Z" id="f3a3S4Hz7I"></path><path d="M673 302.42C673 302.42 673 302.42 673 302.42C673 306.71 673 309.1 673 309.57C673 309.57 673 309.57 673 309.57C655.17 309.57 645.26 309.57 643.28 309.57C643.28 309.57 643.28 309.57 643.28 309.57C643.28 305.28 643.28 302.89 643.28 302.42C643.28 302.42 643.28 302.42 643.28 302.42C661.12 302.42 671.02 302.42 673 302.42Z" id="e2uZOBDoz"></path><path d="M775.93 302.42C775.93 302.42 775.93 302.42 775.93 302.42C775.93 306.71 775.93 309.1 775.93 309.57C775.93 309.57 775.93 309.57 775.93 309.57C769.66 309.57 766.17 309.57 765.47 309.57C765.47 309.57 765.47 309.57 765.47 309.57C765.47 305.28 765.47 302.89 765.47 302.42C765.47 302.42 765.47 302.42 765.47 302.42C771.75 302.42 775.23 302.42 775.93 302.42Z" id="bPlnR0IHv"></path><path d="M796.85 302.42C796.85 302.42 796.85 302.42 796.85 302.42C796.85 306.71 796.85 309.1 796.85 309.57C796.85 309.57 796.85 309.57 796.85 309.57C790.57 309.57 787.09 309.57 786.39 309.57C786.39 309.57 786.39 309.57 786.39 309.57C786.39 305.28 786.39 302.89 786.39 302.42C786.39 302.42 786.39 302.42 786.39 302.42C792.66 302.42 796.15 302.42 796.85 302.42Z" id="a3J8CoXI8N"></path><path d="M754.47 302.42C754.47 302.42 754.47 302.42 754.47 302.42C754.47 306.71 754.47 309.1 754.47 309.57C754.47 309.57 754.47 309.57 754.47 309.57C711.86 309.57 688.2 309.57 683.46 309.57C683.46 309.57 683.46 309.57 683.46 309.57C683.46 305.28 683.46 302.89 683.46 302.42C683.46 302.42 683.46 302.42 683.46 302.42C726.06 302.42 749.73 302.42 754.47 302.42Z" id="c25wBl97"></path><path d="M795.75 272.14C795.75 272.14 795.75 272.14 795.75 272.14C795.75 276.44 795.75 278.82 795.75 279.3C795.75 279.3 795.75 279.3 795.75 279.3C777.91 279.3 768.01 279.3 766.02 279.3C766.02 279.3 766.02 279.3 766.02 279.3C766.02 275.01 766.02 272.62 766.02 272.14C766.02 272.14 766.02 272.14 766.02 272.14C783.86 272.14 793.76 272.14 795.75 272.14Z" id="acn1lIpnw"></path><path d="M835.93 272.14C835.93 272.14 835.93 272.14 835.93 272.14C835.93 276.44 835.93 278.82 835.93 279.3C835.93 279.3 835.93 279.3 835.93 279.3C818.09 279.3 808.19 279.3 806.2 279.3C806.2 279.3 806.2 279.3 806.2 279.3C806.2 275.01 806.2 272.62 806.2 272.14C806.2 272.14 806.2 272.14 806.2 272.14C824.04 272.14 833.94 272.14 835.93 272.14Z" id="fRdEb1eur"></path><path d="M653.74 272.14C653.74 272.14 653.74 272.14 653.74 272.14C653.74 276.44 653.74 278.82 653.74 279.3C653.74 279.3 653.74 279.3 653.74 279.3C647.47 279.3 643.98 279.3 643.28 279.3C643.28 279.3 643.28 279.3 643.28 279.3C643.28 275.01 643.28 272.62 643.28 272.14C643.28 272.14 643.28 272.14 643.28 272.14C649.56 272.14 653.04 272.14 653.74 272.14Z" id="c4mdB3WeB"></path><path d="M674.66 272.14C674.66 272.14 674.66 272.14 674.66 272.14C674.66 276.44 674.66 278.82 674.66 279.3C674.66 279.3 674.66 279.3 674.66 279.3C668.38 279.3 664.9 279.3 664.2 279.3C664.2 279.3 664.2 279.3 664.2 279.3C664.2 275.01 664.2 272.62 664.2 272.14C664.2 272.14 664.2 272.14 664.2 272.14C670.47 272.14 673.96 272.14 674.66 272.14Z" id="bmG5eVLDl"></path><path d="M756.12 272.14C756.12 272.14 756.12 272.14 756.12 272.14C756.12 276.44 756.12 278.82 756.12 279.3C756.12 279.3 756.12 279.3 756.12 279.3C713.51 279.3 689.85 279.3 685.11 279.3C685.11 279.3 685.11 279.3 685.11 279.3C685.11 275.01 685.11 272.62 685.11 272.14C685.11 272.14 685.11 272.14 685.11 272.14C727.72 272.14 751.38 272.14 756.12 272.14Z" id="b1t8uCSJXE"></path><path d="M734.1 287.56C734.1 287.56 734.1 287.56 734.1 287.56C734.1 291.85 734.1 294.23 734.1 294.71C734.1 294.71 734.1 294.71 734.1 294.71C716.27 294.71 706.36 294.71 704.38 294.71C704.38 294.71 704.38 294.71 704.38 294.71C704.38 290.42 704.38 288.03 704.38 287.56C704.38 287.56 704.38 287.56 704.38 287.56C722.21 287.56 732.12 287.56 734.1 287.56Z" id="efmDU6pZX"></path><path d="M693.92 287.56C693.92 287.56 693.92 287.56 693.92 287.56C693.92 291.85 693.92 294.23 693.92 294.71C693.92 294.71 693.92 294.71 693.92 294.71C676.09 294.71 666.18 294.71 664.2 294.71C664.2 294.71 664.2 294.71 664.2 294.71C664.2 290.42 664.2 288.03 664.2 287.56C664.2 287.56 664.2 287.56 664.2 287.56C682.03 287.56 691.94 287.56 693.92 287.56Z" id="d1pMzFJY9G"></path><path d="M653.74 287.56C653.74 287.56 653.74 287.56 653.74 287.56C653.74 291.85 653.74 294.23 653.74 294.71C653.74 294.71 653.74 294.71 653.74 294.71C647.47 294.71 643.98 294.71 643.28 294.71C643.28 294.71 643.28 294.71 643.28 294.71C643.28 290.42 643.28 288.03 643.28 287.56C643.28 287.56 643.28 287.56 643.28 287.56C649.56 287.56 653.04 287.56 653.74 287.56Z" id="b5dMnd4YSq"></path><path d="M835.93 287.56C835.93 287.56 835.93 287.56 835.93 287.56C835.93 291.85 835.93 294.23 835.93 294.71C835.93 294.71 835.93 294.71 835.93 294.71C829.65 294.71 826.17 294.71 825.47 294.71C825.47 294.71 825.47 294.71 825.47 294.71C825.47 290.42 825.47 288.03 825.47 287.56C825.47 287.56 825.47 287.56 825.47 287.56C831.74 287.56 835.23 287.56 835.93 287.56Z" id="auJTGqvnK"></path><path d="M815.01 287.56C815.01 287.56 815.01 287.56 815.01 287.56C815.01 291.85 815.01 294.23 815.01 294.71C815.01 294.71 815.01 294.71 815.01 294.71C772.41 294.71 748.74 294.71 744.01 294.71C744.01 294.71 744.01 294.71 744.01 294.71C744.01 290.42 744.01 288.03 744.01 287.56C744.01 287.56 744.01 287.56 744.01 287.56C786.61 287.56 810.28 287.56 815.01 287.56Z" id="a1E5C1V6Bj"></path></defs><g><g><g><use xlink:href="#f1ssOhuaqE" opacity="1" fill="#6c63ff" fill-opacity="1"></use><g><use xlink:href="#f1ssOhuaqE" opacity="1" fill-opacity="0" stroke="#000000" stroke-width="1" stroke-opacity="0"></use></g></g><g><use xlink:href="#a4eqDdZgDA" opacity="1" fill="#e6e6e6" fill-opacity="1"></use><g><use xlink:href="#a4eqDdZgDA" opacity="1" fill-opacity="0" stroke="#000000" stroke-width="1" stroke-opacity="0"></use></g></g><g><use xlink:href="#bxrgVyKvb" opacity="1" fill="#000000" fill-opacity="1"></use><g><use xlink:href="#bxrgVyKvb" opacity="1" fill-opacity="0" stroke="#000000" stroke-width="1" stroke-opacity="0"></use></g></g><g><use xlink:href="#a1rsdXtufF" opacity="1" fill="#e6e6e6" fill-opacity="1"></use><g><use xlink:href="#a1rsdXtufF" opacity="1" fill-opacity="0" stroke="#000000" stroke-width="1" stroke-opacity="0"></use></g></g><g><use xlink:href="#b6dWiT87LL" opacity="1" fill="#000000" fill-opacity="1"></use><g><use xlink:href="#b6dWiT87LL" opacity="1" fill-opacity="0" stroke="#000000" stroke-width="1" stroke-opacity="0"></use></g></g><g><use xlink:href="#bsfy5bo8Y" opacity="1" fill="#e6e6e6" fill-opacity="1"></use><g><use xlink:href="#bsfy5bo8Y" opacity="1" fill-opacity="0" stroke="#000000" stroke-width="1" stroke-opacity="0"></use></g></g><g><use xlink:href="#c2ohehSsQb" opacity="1" fill="#000000" fill-opacity="1"></use><g><use xlink:href="#c2ohehSsQb" opacity="1" fill-opacity="0" stroke="#000000" stroke-width="1" stroke-opacity="0"></use></g></g><g><use xlink:href="#cQzU010tS" opacity="1" fill="#3f3d56" fill-opacity="1"></use><g><use xlink:href="#cQzU010tS" opacity="1" fill-opacity="0" stroke="#000000" stroke-width="1" stroke-opacity="0"></use></g></g><g><use xlink:href="#b1P1zqeczO" opacity="1" fill="#3f3d56" fill-opacity="1"></use><g><use xlink:href="#b1P1zqeczO" opacity="1" fill-opacity="0" stroke="#000000" stroke-width="1" stroke-opacity="0"></use></g></g><g><use xlink:href="#ay0HYtvjm" opacity="1" fill="#3f3d56" fill-opacity="1"></use><g><use xlink:href="#ay0HYtvjm" opacity="1" fill-opacity="0" stroke="#000000" stroke-width="1" stroke-opacity="0"></use></g></g><g><use xlink:href="#idzjsrmlT" opacity="1" fill="#3f3d56" fill-opacity="1"></use><g><use xlink:href="#idzjsrmlT" opacity="1" fill-opacity="0" stroke="#000000" stroke-width="1" stroke-opacity="0"></use></g></g><g><use xlink:href="#b9uFoDjm9" opacity="1" fill="#3f3d56" fill-opacity="1"></use><g><use xlink:href="#b9uFoDjm9" opacity="1" fill-opacity="0" stroke="#000000" stroke-width="1" stroke-opacity="0"></use></g></g><g><use xlink:href="#aXvMY9vx" opacity="1" fill="#3f3d56" fill-opacity="1"></use><g><use xlink:href="#aXvMY9vx" opacity="1" fill-opacity="0" stroke="#000000" stroke-width="1" stroke-opacity="0"></use></g></g><g><use xlink:href="#alK7yT33V" opacity="1" fill="#3f3d56" fill-opacity="1"></use><g><use xlink:href="#alK7yT33V" opacity="1" fill-opacity="0" stroke="#000000" stroke-width="1" stroke-opacity="0"></use></g></g><g><use xlink:href="#a4aSdcybSh" opacity="1" fill="#3f3d56" fill-opacity="1"></use><g><use xlink:href="#a4aSdcybSh" opacity="1" fill-opacity="0" stroke="#000000" stroke-width="1" stroke-opacity="0"></use></g></g><g><use xlink:href="#a1AMPfjWgw" opacity="1" fill="#3f3d56" fill-opacity="1"></use><g><use xlink:href="#a1AMPfjWgw" opacity="1" fill-opacity="0" stroke="#000000" stroke-width="1" stroke-opacity="0"></use></g></g><g><use xlink:href="#c83JKH1bi" opacity="1" fill="#f2f2f2" fill-opacity="1"></use><g><use xlink:href="#c83JKH1bi" opacity="1" fill-opacity="0" stroke="#000000" stroke-width="1" stroke-opacity="0"></use></g></g><g><use xlink:href="#g380ExMGOR" opacity="1" fill="#f2f2f2" fill-opacity="1"></use><g><use xlink:href="#g380ExMGOR" opacity="1" fill-opacity="0" stroke="#000000" stroke-width="1" stroke-opacity="0"></use></g></g><g><use xlink:href="#j3s2AvGfnU" opacity="1" fill="#f2f2f2" fill-opacity="1"></use><g><use xlink:href="#j3s2AvGfnU" opacity="1" fill-opacity="0" stroke="#000000" stroke-width="1" stroke-opacity="0"></use></g></g><g><use xlink:href="#a2Nc8vEQcp" opacity="1" fill="#3f3d56" fill-opacity="1"></use><g><use xlink:href="#a2Nc8vEQcp" opacity="1" fill-opacity="0" stroke="#000000" stroke-width="1" stroke-opacity="0"></use></g></g><g><use xlink:href="#c1hvqUsRp" opacity="1" fill="#3f3d56" fill-opacity="1"></use><g><use xlink:href="#c1hvqUsRp" opacity="1" fill-opacity="0" stroke="#000000" stroke-width="1" stroke-opacity="0"></use></g></g><g><use xlink:href="#aazJefpRl" opacity="1" fill="#000000" fill-opacity="1"></use><g><use xlink:href="#aazJefpRl" opacity="1" fill-opacity="0" stroke="#000000" stroke-width="1" stroke-opacity="0"></use></g></g><g><use xlink:href="#b24rSjjVmR" opacity="1" fill="#f2f2f2" fill-opacity="1"></use><g><use xlink:href="#b24rSjjVmR" opacity="1" fill-opacity="0" stroke="#000000" stroke-width="1" stroke-opacity="0"></use></g></g><g><use xlink:href="#aoCM8UuSo" opacity="1" fill="#000000" fill-opacity="1"></use><g><use xlink:href="#aoCM8UuSo" opacity="1" fill-opacity="0" stroke="#000000" stroke-width="1" stroke-opacity="0"></use></g></g><g><use xlink:href="#c2l0sKgEY9" opacity="1" fill="#2f2e41" fill-opacity="1"></use><g><use xlink:href="#c2l0sKgEY9" opacity="1" fill-opacity="0" stroke="#000000" stroke-width="1" stroke-opacity="0"></use></g></g><g><use xlink:href="#cb8CaYmA" opacity="1" fill="#ffb8b8" fill-opacity="1"></use><g><use xlink:href="#cb8CaYmA" opacity="1" fill-opacity="0" stroke="#000000" stroke-width="1" stroke-opacity="0"></use></g></g><g><use xlink:href="#eg998Uc5L" opacity="1" fill="#ffb8b8" fill-opacity="1"></use><g><use xlink:href="#eg998Uc5L" opacity="1" fill-opacity="0" stroke="#000000" stroke-width="1" stroke-opacity="0"></use></g></g><g><use xlink:href="#c1W0MpCCf" opacity="1" fill="#ffb8b8" fill-opacity="1"></use><g><use xlink:href="#c1W0MpCCf" opacity="1" fill-opacity="0" stroke="#000000" stroke-width="1" stroke-opacity="0"></use></g></g><g><use xlink:href="#a3zm6Bpc7" opacity="1" fill="#2f2e41" fill-opacity="1"></use><g><use xlink:href="#a3zm6Bpc7" opacity="1" fill-opacity="0" stroke="#000000" stroke-width="1" stroke-opacity="0"></use></g></g><g><use xlink:href="#b5eqQJZcT" opacity="1" fill="#2f2e41" fill-opacity="1"></use><g><use xlink:href="#b5eqQJZcT" opacity="1" fill-opacity="0" stroke="#000000" stroke-width="1" stroke-opacity="0"></use></g></g><g><use xlink:href="#b28MbFJWhu" opacity="1" fill="#ffb8b8" fill-opacity="1"></use><g><use xlink:href="#b28MbFJWhu" opacity="1" fill-opacity="0" stroke="#000000" stroke-width="1" stroke-opacity="0"></use></g></g><g><use xlink:href="#a103MRhRXr" opacity="1" fill="#6c63ff" fill-opacity="1"></use><g><use xlink:href="#a103MRhRXr" opacity="1" fill-opacity="0" stroke="#000000" stroke-width="1" stroke-opacity="0"></use></g></g><g><use xlink:href="#aQghPzNB6" opacity="1" fill="#2f2e41" fill-opacity="1"></use><g><use xlink:href="#aQghPzNB6" opacity="1" fill-opacity="0" stroke="#000000" stroke-width="1" stroke-opacity="0"></use></g></g><g><use xlink:href="#a2qu24RuL" opacity="1" fill="#2f2e41" fill-opacity="1"></use><g><use xlink:href="#a2qu24RuL" opacity="1" fill-opacity="0" stroke="#000000" stroke-width="1" stroke-opacity="0"></use></g></g><g><use xlink:href="#dH7bRb3SW" opacity="1" fill="#ffb8b8" fill-opacity="1"></use><g><use xlink:href="#dH7bRb3SW" opacity="1" fill-opacity="0" stroke="#000000" stroke-width="1" stroke-opacity="0"></use></g></g><g><use xlink:href="#aa0mdIj6f" opacity="1" fill="#2f2e41" fill-opacity="1"></use><g><use xlink:href="#aa0mdIj6f" opacity="1" fill-opacity="0" stroke="#000000" stroke-width="1" stroke-opacity="0"></use></g></g><g><use xlink:href="#e1TVwnPdg" opacity="1" fill="#2f2e41" fill-opacity="1"></use><g><use xlink:href="#e1TVwnPdg" opacity="1" fill-opacity="0" stroke="#000000" stroke-width="1" stroke-opacity="0"></use></g></g><g><use xlink:href="#a1rliR2SBZ" opacity="1" fill="#2f2e41" fill-opacity="1"></use><g><use xlink:href="#a1rliR2SBZ" opacity="1" fill-opacity="0" stroke="#000000" stroke-width="1" stroke-opacity="0"></use></g></g><g><use xlink:href="#a28qtaPTeb" opacity="1" fill="#ffb8b8" fill-opacity="1"></use><g><use xlink:href="#a28qtaPTeb" opacity="1" fill-opacity="0" stroke="#000000" stroke-width="1" stroke-opacity="0"></use></g></g><g><use xlink:href="#d1nhEA5cds" opacity="1" fill="#2f2e41" fill-opacity="1"></use><g><use xlink:href="#d1nhEA5cds" opacity="1" fill-opacity="0" stroke="#000000" stroke-width="1" stroke-opacity="0"></use></g></g><g><use xlink:href="#a3taLhgz5w" opacity="1" fill="#6c63ff" fill-opacity="1"></use><g><use xlink:href="#a3taLhgz5w" opacity="1" fill-opacity="0" stroke="#000000" stroke-width="1" stroke-opacity="0"></use></g></g><g><use xlink:href="#a1kaSCOknU" opacity="1" fill="#6c63ff" fill-opacity="1"></use><g><use xlink:href="#a1kaSCOknU" opacity="1" fill-opacity="0" stroke="#000000" stroke-width="1" stroke-opacity="0"></use></g></g><g><use xlink:href="#atra3cmU2" opacity="1" fill="#6c63ff" fill-opacity="1"></use><g><use xlink:href="#atra3cmU2" opacity="1" fill-opacity="0" stroke="#000000" stroke-width="1" stroke-opacity="0"></use></g></g><g><use xlink:href="#f3a3S4Hz7I" opacity="1" fill="#6c63ff" fill-opacity="1"></use><g><use xlink:href="#f3a3S4Hz7I" opacity="1" fill-opacity="0" stroke="#000000" stroke-width="1" stroke-opacity="0"></use></g></g><g><use xlink:href="#e2uZOBDoz" opacity="1" fill="#6c63ff" fill-opacity="1"></use><g><use xlink:href="#e2uZOBDoz" opacity="1" fill-opacity="0" stroke="#000000" stroke-width="1" stroke-opacity="0"></use></g></g><g><use xlink:href="#bPlnR0IHv" opacity="1" fill="#6c63ff" fill-opacity="1"></use><g><use xlink:href="#bPlnR0IHv" opacity="1" fill-opacity="0" stroke="#000000" stroke-width="1" stroke-opacity="0"></use></g></g><g><use xlink:href="#a3J8CoXI8N" opacity="1" fill="#6c63ff" fill-opacity="1"></use><g><use xlink:href="#a3J8CoXI8N" opacity="1" fill-opacity="0" stroke="#000000" stroke-width="1" stroke-opacity="0"></use></g></g><g><use xlink:href="#c25wBl97" opacity="1" fill="#6c63ff" fill-opacity="1"></use><g><use xlink:href="#c25wBl97" opacity="1" fill-opacity="0" stroke="#000000" stroke-width="1" stroke-opacity="0"></use></g></g><g><use xlink:href="#acn1lIpnw" opacity="1" fill="#6c63ff" fill-opacity="1"></use><g><use xlink:href="#acn1lIpnw" opacity="1" fill-opacity="0" stroke="#000000" stroke-width="1" stroke-opacity="0"></use></g></g><g><use xlink:href="#fRdEb1eur" opacity="1" fill="#6c63ff" fill-opacity="1"></use><g><use xlink:href="#fRdEb1eur" opacity="1" fill-opacity="0" stroke="#000000" stroke-width="1" stroke-opacity="0"></use></g></g><g><use xlink:href="#c4mdB3WeB" opacity="1" fill="#6c63ff" fill-opacity="1"></use><g><use xlink:href="#c4mdB3WeB" opacity="1" fill-opacity="0" stroke="#000000" stroke-width="1" stroke-opacity="0"></use></g></g><g><use xlink:href="#bmG5eVLDl" opacity="1" fill="#6c63ff" fill-opacity="1"></use><g><use xlink:href="#bmG5eVLDl" opacity="1" fill-opacity="0" stroke="#000000" stroke-width="1" stroke-opacity="0"></use></g></g><g><use xlink:href="#b1t8uCSJXE" opacity="1" fill="#6c63ff" fill-opacity="1"></use><g><use xlink:href="#b1t8uCSJXE" opacity="1" fill-opacity="0" stroke="#000000" stroke-width="1" stroke-opacity="0"></use></g></g><g><use xlink:href="#efmDU6pZX" opacity="1" fill="#6c63ff" fill-opacity="1"></use><g><use xlink:href="#efmDU6pZX" opacity="1" fill-opacity="0" stroke="#000000" stroke-width="1" stroke-opacity="0"></use></g></g><g><use xlink:href="#d1pMzFJY9G" opacity="1" fill="#6c63ff" fill-opacity="1"></use><g><use xlink:href="#d1pMzFJY9G" opacity="1" fill-opacity="0" stroke="#000000" stroke-width="1" stroke-opacity="0"></use></g></g><g><use xlink:href="#b5dMnd4YSq" opacity="1" fill="#6c63ff" fill-opacity="1"></use><g><use xlink:href="#b5dMnd4YSq" opacity="1" fill-opacity="0" stroke="#000000" stroke-width="1" stroke-opacity="0"></use></g></g><g><use xlink:href="#auJTGqvnK" opacity="1" fill="#6c63ff" fill-opacity="1"></use><g><use xlink:href="#auJTGqvnK" opacity="1" fill-opacity="0" stroke="#000000" stroke-width="1" stroke-opacity="0"></use></g></g><g><use xlink:href="#a1E5C1V6Bj" opacity="1" fill="#6c63ff" fill-opacity="1"></use><g><use xlink:href="#a1E5C1V6Bj" opacity="1" fill-opacity="0" stroke="#000000" stroke-width="1" stroke-opacity="0"></use></g></g></g></g></svg>